<svg width="67" height="15" viewBox="0 0 67 15" fill="none" xmlns="http://www.w3.org/2000/svg">
<path d="M0.952148 12V2.69434H4.44336C5.1543 2.69434 5.72347 2.78955 6.15088 2.97998C6.58252 3.16618 6.91895 3.45605 7.16016 3.84961C7.4056 4.23893 7.52832 4.6473 7.52832 5.07471C7.52832 5.47249 7.42041 5.84701 7.20459 6.19824C6.98877 6.54948 6.66292 6.83301 6.22705 7.04883C6.78988 7.21387 7.22152 7.49528 7.52197 7.89307C7.82666 8.29085 7.979 8.76058 7.979 9.30225C7.979 9.73812 7.8859 10.1444 7.69971 10.521C7.51774 10.8934 7.29134 11.1812 7.02051 11.3843C6.74967 11.5874 6.40902 11.7419 5.99854 11.8477C5.59229 11.9492 5.09294 12 4.50049 12H0.952148ZM2.18359 6.60449H4.1958C4.7417 6.60449 5.13314 6.56852 5.37012 6.49658C5.68327 6.40348 5.91813 6.24902 6.07471 6.0332C6.23551 5.81738 6.31592 5.54655 6.31592 5.2207C6.31592 4.91178 6.24186 4.64095 6.09375 4.4082C5.94564 4.17122 5.73405 4.01042 5.45898 3.92578C5.18392 3.83691 4.71208 3.79248 4.04346 3.79248H2.18359V6.60449ZM2.18359 10.9019H4.50049C4.89827 10.9019 5.17757 10.887 5.33838 10.8574C5.62191 10.8066 5.85889 10.722 6.04932 10.6035C6.23975 10.485 6.39632 10.3136 6.51904 10.0894C6.64176 9.86084 6.70312 9.59847 6.70312 9.30225C6.70312 8.95524 6.61426 8.65479 6.43652 8.40088C6.25879 8.14274 6.01123 7.96289 5.69385 7.86133C5.3807 7.75553 4.9279 7.70264 4.33545 7.70264H2.18359V10.9019ZM9.10254 8.62939C9.10254 7.38102 9.44954 6.45638 10.1436 5.85547C10.7233 5.35612 11.43 5.10645 12.2637 5.10645C13.1904 5.10645 13.9479 5.41113 14.5361 6.02051C15.1243 6.62565 15.4185 7.46354 15.4185 8.53418C15.4185 9.40169 15.2873 10.0851 15.0249 10.5845C14.7668 11.0796 14.388 11.4647 13.8887 11.7397C13.3936 12.0148 12.8519 12.1523 12.2637 12.1523C11.32 12.1523 10.5562 11.8498 9.97217 11.2446C9.39242 10.6395 9.10254 9.76774 9.10254 8.62939ZM10.2769 8.62939C10.2769 9.49268 10.4652 10.1401 10.8418 10.5718C11.2184 10.9992 11.6924 11.2129 12.2637 11.2129C12.8307 11.2129 13.3026 10.9971 13.6792 10.5654C14.0558 10.1338 14.2441 9.47575 14.2441 8.59131C14.2441 7.75765 14.0537 7.12712 13.6729 6.69971C13.2962 6.26807 12.8265 6.05225 12.2637 6.05225C11.6924 6.05225 11.2184 6.26595 10.8418 6.69336C10.4652 7.12077 10.2769 7.76611 10.2769 8.62939ZM21.1821 12V11.0098C20.6574 11.7715 19.9443 12.1523 19.043 12.1523C18.6452 12.1523 18.2728 12.0762 17.9258 11.9238C17.583 11.7715 17.327 11.5811 17.1577 11.3525C16.9927 11.1198 16.8763 10.8363 16.8086 10.502C16.762 10.2777 16.7388 9.9222 16.7388 9.43555V5.25879H17.8813V8.99756C17.8813 9.59424 17.9046 9.99626 17.9512 10.2036C18.0231 10.5041 18.1755 10.741 18.4082 10.9146C18.641 11.0838 18.9287 11.1685 19.2715 11.1685C19.6143 11.1685 19.9359 11.0817 20.2363 10.9082C20.5368 10.7305 20.7484 10.4914 20.8711 10.1909C20.998 9.88623 21.0615 9.44613 21.0615 8.87061V5.25879H22.2041V12H21.1821ZM24.2734 12V6.14746H23.2642V5.25879H24.2734V4.5415C24.2734 4.0887 24.3136 3.75228 24.394 3.53223C24.5041 3.236 24.6966 2.99691 24.9717 2.81494C25.251 2.62874 25.6403 2.53564 26.1396 2.53564C26.4613 2.53564 26.8167 2.57373 27.2061 2.6499L27.0347 3.64648C26.7977 3.60417 26.5734 3.58301 26.3618 3.58301C26.0148 3.58301 25.7694 3.65706 25.6255 3.80518C25.4816 3.95329 25.4097 4.23047 25.4097 4.63672V5.25879H26.7236V6.14746H25.4097V12H24.2734ZM27.6504 12V6.14746H26.6411V5.25879H27.6504V4.5415C27.6504 4.0887 27.6906 3.75228 27.771 3.53223C27.881 3.236 28.0736 2.99691 28.3486 2.81494C28.6279 2.62874 29.0173 2.53564 29.5166 2.53564C29.8382 2.53564 30.1937 2.57373 30.583 2.6499L30.4116 3.64648C30.1746 3.60417 29.9504 3.58301 29.7388 3.58301C29.3918 3.58301 29.1463 3.65706 29.0024 3.80518C28.8586 3.95329 28.7866 4.23047 28.7866 4.63672V5.25879H30.1006V6.14746H28.7866V12H27.6504ZM30.5703 8.62939C30.5703 7.38102 30.9173 6.45638 31.6113 5.85547C32.1911 5.35612 32.8978 5.10645 33.7314 5.10645C34.6582 5.10645 35.4157 5.41113 36.0039 6.02051C36.5921 6.62565 36.8862 7.46354 36.8862 8.53418C36.8862 9.40169 36.755 10.0851 36.4927 10.5845C36.2345 11.0796 35.8558 11.4647 35.3564 11.7397C34.8613 12.0148 34.3197 12.1523 33.7314 12.1523C32.7878 12.1523 32.0239 11.8498 31.4399 11.2446C30.8602 10.6395 30.5703 9.76774 30.5703 8.62939ZM31.7446 8.62939C31.7446 9.49268 31.9329 10.1401 32.3096 10.5718C32.6862 10.9992 33.1602 11.2129 33.7314 11.2129C34.2985 11.2129 34.7703 10.9971 35.147 10.5654C35.5236 10.1338 35.7119 9.47575 35.7119 8.59131C35.7119 7.75765 35.5215 7.12712 35.1406 6.69971C34.764 6.26807 34.2943 6.05225 33.7314 6.05225C33.1602 6.05225 32.6862 6.26595 32.3096 6.69336C31.9329 7.12077 31.7446 7.76611 31.7446 8.62939ZM38.2319 12V5.25879H39.2603V6.21729C39.7554 5.47673 40.4705 5.10645 41.4058 5.10645C41.812 5.10645 42.1844 5.1805 42.5229 5.32861C42.8657 5.47249 43.1217 5.66292 43.291 5.8999C43.4603 6.13688 43.5788 6.41829 43.6465 6.74414C43.6888 6.95573 43.71 7.32601 43.71 7.85498V12H42.5674V7.89941C42.5674 7.43392 42.5229 7.08691 42.4341 6.8584C42.3452 6.62565 42.1865 6.44157 41.958 6.30615C41.7337 6.1665 41.4692 6.09668 41.1646 6.09668C40.6779 6.09668 40.2568 6.25114 39.9014 6.56006C39.5501 6.86898 39.3745 7.45508 39.3745 8.31836V12H38.2319Z" fill="white"/>
<rect x="45" width="22" height="15" rx="2" fill="#FFA31A"/>
<path d="M48.459 2.69434V6.11572C48.6917 5.77718 48.9478 5.52539 49.2271 5.36035C49.5106 5.19108 49.8174 5.10645 50.1475 5.10645C50.5876 5.10645 50.9557 5.22282 51.252 5.45557C51.5482 5.68831 51.7598 6.01839 51.8867 6.4458C51.9798 6.75895 52.0264 7.29215 52.0264 8.04541V12H50.5664V8.43896C50.5664 7.61377 50.5135 7.09749 50.4077 6.89014C50.2596 6.61084 50.0078 6.47119 49.6523 6.47119C49.2757 6.47119 48.9816 6.62354 48.77 6.92822C48.5627 7.22868 48.459 7.79362 48.459 8.62305V12H46.9927V2.69434H48.459ZM57.1426 12V10.9907C56.9395 11.3547 56.6729 11.6403 56.3428 11.8477C56.0127 12.0508 55.6678 12.1523 55.3081 12.1523C54.9442 12.1523 54.6183 12.0571 54.3306 11.8667C54.0428 11.6763 53.827 11.4054 53.6831 11.0542C53.5435 10.703 53.4736 10.193 53.4736 9.52441V5.25879H54.9399V8.35645C54.9399 9.24089 54.9611 9.80371 55.0034 10.0449C55.05 10.2819 55.1494 10.466 55.3018 10.5972C55.4541 10.7284 55.6382 10.7939 55.854 10.7939C56.0994 10.7939 56.3258 10.7093 56.5332 10.54C56.7406 10.3665 56.876 10.1465 56.9395 9.87988C57.0072 9.60905 57.041 9.0166 57.041 8.10254V5.25879H58.501V12H57.1426ZM59.9546 12V2.69434H61.4209V6.0459C61.6452 5.73275 61.8906 5.49788 62.1572 5.34131C62.4281 5.18473 62.7179 5.10645 63.0269 5.10645C63.6785 5.10645 64.2287 5.40055 64.6772 5.98877C65.13 6.57699 65.3564 7.4445 65.3564 8.59131C65.3564 9.73389 65.1258 10.6141 64.6646 11.2319C64.2033 11.8455 63.6616 12.1523 63.0396 12.1523C62.7222 12.1523 62.409 12.055 62.1001 11.8604C61.7912 11.6657 61.5288 11.3822 61.313 11.0098V12H59.9546ZM61.4082 8.4834C61.4082 9.06315 61.4632 9.50537 61.5732 9.81006C61.6833 10.1147 61.8398 10.3475 62.043 10.5083C62.2461 10.6649 62.4598 10.7432 62.6841 10.7432C63.0057 10.7432 63.2808 10.576 63.5093 10.2417C63.7378 9.90316 63.8521 9.36995 63.8521 8.64209C63.8521 7.87614 63.7357 7.32389 63.5029 6.98535C63.2744 6.64258 62.9824 6.47119 62.627 6.47119C62.2884 6.47119 62.0007 6.63623 61.7637 6.96631C61.5267 7.29639 61.4082 7.80208 61.4082 8.4834Z" fill="black"/>
</svg>
